<?xml version="1.0" encoding="UTF-8"?>
<svg xmlns="http://www.w3.org/2000/svg" version="1.1" viewBox="0 0 128 128">
  <defs>
    <style>
      .cls-1 {
        fill: #919191;
      }
    </style>
  </defs>
  <!-- Generator: Adobe Illustrator 28.6.0, SVG Export Plug-In . SVG Version: 1.2.0 Build 709)  -->
  <g>
    <g id="Layer_1">
      <path class="cls-1" d="M126.7,98.4c-4.6,1.2-7.4,0-9.9-3.8-5.7-8.5-11.9-16.6-18-24.9-.8-1.1-1.6-2.1-2.6-3.4-7.2,9.7-14.3,18.9-21,28.4-2.4,3.4-4.9,4.9-9.4,3.7l26.9-36.1-25.1-32.6c4.3-.8,7.3-.4,9.9,3.5,5.8,8.5,12.3,16.6,18.7,25.2,6.4-8.5,12.8-16.7,18.8-25.1,2.4-3.4,5-4.7,9.3-3.5-3.3,4.3-6.5,8.6-9.7,12.9-4.4,5.7-8.6,11.5-13.2,17.1-1.6,2-1.3,3.3,0,5.2,8.4,11,16.6,22.1,25.1,33.4ZM1.3,61.7c.7-3.6,1.2-7.3,2.2-10.8,6-21.4,30.6-30.3,47.5-17.1,9.9,7.8,12.4,18.8,11.9,31.1H7.1c-.8,22.2,15.2,35.6,35.5,28.8,7.2-2.4,11.4-8,13.5-15,1.1-3.5,2.8-4.1,6.1-3.1-1.7,8.8-5.5,16.1-13.5,20.7-12,6.9-29.1,4.6-38.1-4.9-5.3-5.6-7.6-12.6-8.6-20.1-.1-1.2-.5-2.4-.7-3.6,0-2,0-4.1,0-6.1ZM7.2,60.2h50.4c-.3-16.1-10.3-27.5-24-27.6-15-.1-25.8,11-26.4,27.6Z"/>
    </g>
  </g>
</svg>