<?xml version="1.0" encoding="UTF-8"?>
<svg id="Layer_1" xmlns="http://www.w3.org/2000/svg" version="1.1" xmlns:xlink="http://www.w3.org/1999/xlink" viewBox="0 0 128 128">
  <!-- Generator: Adobe Illustrator 29.8.2, SVG Export Plug-In . SVG Version: 2.1.1 Build 3)  -->
  <defs>
    <style>
      .st0 {
        fill: #2b52cb;
      }

      .st1 {
        fill: #8b7869;
      }

      .st2 {
        fill: #cad8e2;
      }

      .st3 {
        fill: #1d2741;
      }

      .st4 {
        fill: #0d0f1e;
      }

      .st5 {
        fill: #51678f;
      }

      .st6 {
        fill: #d7e4e2;
      }

      .st7 {
        fill: #6f0b0d;
      }

      .st8 {
        fill: #090a18;
      }

      .st9 {
        fill: #360810;
      }

      .st10 {
        fill: #d920c0;
      }

      .st11 {
        fill: #a1b7d6;
      }

      .st12 {
        fill: #b7cae1;
      }

      .st13 {
        fill: #cf3230;
      }

      .st14 {
        fill: #c82095;
      }

      .st15 {
        fill: #cf8edb;
      }

      .st16 {
        fill: none;
      }

      .st17 {
        fill: #5a7ae1;
      }

      .st18 {
        fill: #829ec4;
      }

      .st19 {
        fill: #62bfdb;
      }

      .st20 {
        fill: #5da984;
      }

      .st21 {
        fill: #d01d4a;
      }

      .st22 {
        fill: #364669;
      }

      .st23 {
        fill: #0f1135;
      }

      .st24 {
        fill: #9ae5d5;
      }

      .st25 {
        fill: #8facce;
      }

      .st26 {
        fill: #7d99c1;
      }

      .st27 {
        fill: #6c82a9;
      }

      .st28 {
        fill: #212e4b;
      }

      .st29 {
        fill: #141a2e;
      }

      .st30 {
        fill: #e1e6e2;
      }

      .st31 {
        fill: #dc62b5;
      }

      .st32 {
        fill: #afd792;
      }

      .st33 {
        fill: #263250;
      }

      .st34 {
        fill: #a6a275;
      }

      .st35 {
        fill: #586d94;
      }

      .st36 {
        fill: #920a5d;
      }

      .st37 {
        fill: #7086ad;
      }

      .st38 {
        fill: #524448;
      }

      .st39 {
        fill: #a3bcda;
      }

      .st40 {
        fill: #ed40df;
      }

      .st41 {
        clip-path: url(#clippath);
      }

      .st42 {
        fill: #ba4214;
      }

      .st43 {
        fill: #ab0f52;
      }

      .st44 {
        fill: #3888d6;
      }

      .st45 {
        fill: #2d3d7f;
      }
    </style>
    <clipPath id="clippath">
      <path class="st16" d="M7.05,21.49s-4.63,3.52-3.05,7.73,2.61,7.51,2.61,7.51l13.9,80.36s1.66,11.25,11.61,9.14,87.21-17.51,87.21-17.51c0,0,7.36-3.82,4.88-11.67-2.49-7.86-20.64-72.34-20.64-72.34l-62.12,6.92,58.15-16.65-4.86-11.34s-2.27-3.23-7.64-1.78S7.05,21.49,7.05,21.49Z"/>
    </clipPath>
  </defs>
  <g class="st41">
    <g>
      <path class="st23" d="M41.98,31.66l61.42-6.98,21.12,74.48s.62,8.34-5.6,9.56-89.26,17.94-89.26,17.94c0,0-7.47,3.01-10.33-13.21"/>
      <path class="st23" d="M88.4,1.16s4.96-.63,7.36,4.23c2.4,4.86,4.97,9.57,4.39,9.93s-59.44,17.03-59.56,16.95"/>
      <path class="st26" d="M97.51,9.17l-.93.03c-.22,0-.38-.01-.47-.06l-11.53-5.94c-.61-.31-.59-.43.05-.36.68.08.99-.26.91-1.01,6.65-2.45,9.94,1.77,11.96,7.34h0Z"/>
      <path class="st11" d="M85.55,1.83c.07.75-.23,1.08-.91,1.01-.64-.07-.66.05-.05.36l11.53,5.94c.09.05.25.07.47.06l.93-.03c.46.55.73,1.16.8,1.85l-16.25-8.31,3.49-.87h0Z"/>
      <path class="st28" d="M82.06,2.71l16.25,8.31-.78.48c.01-1.42-10.21,2.38-11.2,2.83l-16.87-8.45,12.6-3.17h0Z"/>
      <path class="st25" d="M69.46,5.87l16.87,8.45c-3.93,1.37-7.94,2.49-12.02,3.34l-1.04-.39c.94.08,1.19-.37.36-.77-4.66-2.25-9.15-4.49-13.48-6.72-.53-.27-.5-.48.07-.64l6.66-1.78c.16-.04.28-.16.32-.3.07-.22.05-.43-.06-.62l2.32-.58h0Z"/>
      <path class="st12" d="M67.13,6.45c.11.19.13.4.06.62-.04.14-.16.26-.32.3l-6.66,1.78c-.57.15-.59.37-.07.64,4.32,2.23,8.82,4.47,13.48,6.72.83.4.58.85-.36.77l-16.2-8.11,10.07-2.72Z"/>
      <path class="st22" d="M57.07,9.17l16.2,8.11,1.04.39-.13.13-1.41.37c.24-1.23-9.07,1.94-10.87,2.55-.17.06-.29.16-.34.26-.08.17.04.24.36.21l-.78.26-.26-.04c.16-.81-15.4-8.12-17.63-8.72,4.55-1.41,9.16-2.58,13.83-3.52h0Z"/>
      <path class="st5" d="M97.53,11.5l-10.67,2.87c-.19.05-.32.18-.32.31l-.08,2.58c.14.72.01,1.4-.38,2.02l-11.79,3.13c-.25-1.56-.28-3.09-.11-4.61l.13-.13c4.08-.86,8.08-1.97,12.02-3.34,1-.44,11.21-4.25,11.2-2.83Z"/>
      <path class="st12" d="M43.24,12.69c2.23.6,17.79,7.91,17.63,8.72l-12.99,3.31c-5.33-2.82-10.71-5.52-16.14-8.08-.46-.22-.94-.32-1.44-.32-.1,0-.19-.07-.2-.15,0-.01,0-.02,0-.03.01-.06.05-.12.1-.17,0,0,13.02-3.28,13.02-3.28Z"/>
      <path class="st4" d="M86.08,19.28c.39-.62.52-1.3.38-2.02,2.47.01,4.74-.65,6.81-1.97.11-.07.26-.12.47-.14l3.65-.47c.13-.02.27.08.34.24.76,1.65-1.11,1.55-2.01,1.8-3.22.88-6.44,1.74-9.65,2.56h0Z"/>
      <path class="st5" d="M30.22,15.98c-.06.05-.09.1-.1.17-.02.08.05.16.15.18.01,0,.03,0,.04,0,.5,0,.98.11,1.44.32,5.43,2.56,10.81,5.25,16.14,8.08-.47.44-.96.67-1.46.7-.05-.51-.35-.7-.91-.54-2.55.7-4.81,1.37-7.53,1.9-1.21.24-2.29.77-3.25,1.61l-.47.19v-.19c0-.11-.07-.22-.17-.27l-18.07-8.61s14.19-3.55,14.19-3.55Z"/>
      <path class="st27" d="M72.76,18.17l-10.85,3.02c-.32.03-.44-.03-.36-.21.05-.11.17-.2.34-.26,1.8-.62,11.11-3.78,10.87-2.55Z"/>
      <path class="st8" d="M74.18,17.8c-.17,1.51-.14,3.05.11,4.61-4.14,1.65-8.44,2.84-12.89,3.57l-.02-.85-.24-3.67.78-.26,10.85-3.02,1.41-.37h0Z"/>
      <path class="st6" d="M16.02,19.52l18.07,8.61c.1.05.17.15.17.27v.19l-13.31,3.43c-.42-.06-.81-.19-1.18-.4-4.87-2.63-9.83-5.07-14.88-7.32,1.7-3.17,7.89-4.02,11.14-4.78Z"/>
      <path class="st4" d="M60.87,21.41l.26.04.24,3.67c-4.2.82-8.3,1.98-12.29,3.5-.18.07-.32.18-.39.31-.21.39-.02.59.56.61l-6.01,1.62c-.21.06-.37.16-.4.27-.03.13.02.27.14.41l-8,1.01-13.49,1.49c-.16.02-.32.1-.43.22-4.37,5.01-8.47,10.24-12.28,15.69-.47-.46-.53-.97-.19-1.51,3.74-4.09,7.2-8.38,10.39-12.86.08-.12.21-.22.36-.28.34-.14.57-.39.68-.75.03-.11-.08-.22-.26-.24-.04,0-.08,0-.12,0-1.35.15-13.22,1.43-13.21,2.08l-.11-.63,13.18-3.56,1.43-.48,13.31-3.43.47-.19,11.69-2.97c.5-.03.99-.26,1.46-.7l12.99-3.31Z"/>
      <path class="st27" d="M4.89,24.3c5.05,2.25,10.02,4.69,14.88,7.32.37.2.77.33,1.18.4l-1.43.48c-.12-.5-.46-.65-1.04-.46-3.28,1.08-6.62,1.95-10.02,2.61-1,.19-1.61-.07-1.82-.79-.04-.14-.17-.22-.29-.18,0,0-.01,0-.02,0-.25.09-.47.22-.66.41-.92-2.61-2.67-6.3-1.36-8.93.13-.34.32-.63.58-.86h0Z"/>
      <path class="st29" d="M103.4,24.67l-9,13.83-13.42,1.79c-.19.02-.23-.04-.12-.2l8.97-13.44c.05-.08.05-.17,0-.21,0,0,0,0,0,0l-.12-.07.17-.22c.09-.12.25-.19.45-.19,4.38-.14,8.74-.57,13.08-1.28h0Z"/>
      <path class="st25" d="M103.4,24.67l.28.28c.21,1.11-.35,1.02-.85,1.6-.97,1.13-1.62,2.73-2.17,3.64-1.28,2.1-2.59,4.13-3.92,6.09-.56.82-.34,1.16.67,1.02l8.19-1.19c.15-.02.25-.16.23-.32-.19-2.31-1.4-3.93-1.84-6.91-.11-.73.07-.95.55-.66l3.17,11.22c-.06.42-.24.52-.52.3-.15-.11-.24-.28-.26-.46-.06-.75-.4-1.32-1.01-1.71-.13-.08-.29-.1-.43-.05-2.6.93-5.25,1.26-7.96,1.01-1.02-.2-2.06-.21-3.14-.02l9-13.83Z"/>
      <path class="st27" d="M46.42,25.43l-11.69,2.97c.96-.83,2.04-1.37,3.25-1.61,2.72-.53,4.98-1.21,7.53-1.9.55-.15.86.03.91.54Z"/>
      <path class="st26" d="M103.68,24.96l.87,3.26c-.47-.29-.66-.06-.55.66.44,2.98,1.65,4.6,1.84,6.91.01.16-.09.3-.23.32l-8.19,1.19c-1.01.15-1.23-.19-.67-1.02,1.33-1.96,2.64-3.99,3.92-6.09.55-.91,1.21-2.52,2.17-3.64.5-.58,1.06-.5.85-1.6Z"/>
      <path class="st22" d="M61.37,25.13l.02.85-12.13,3.56c-.58-.01-.77-.21-.56-.61.07-.13.21-.25.39-.31,3.99-1.51,8.09-2.68,12.29-3.5h0Z"/>
      <path class="st39" d="M89.7,26.37l.12.07c.06.03.06.13,0,.21,0,0,0,0,0,0l-8.97,13.44c-.11.16-.07.22.12.2l13.42-1.79c1.08-.19,2.13-.19,3.14.02-.94.48-1.86.72-2.77.7-.17,0-.32.14-.32.31,0,.02,0,.04,0,.06.54,2.7-2.34,2.81-2.14,5.47-2.21.48-4.43.8-6.68.97-.65.05-1.26.44-1.93.45-3.09.04-6.29.83-8.88,1.14-3.08.35-6.57.94-10.42,1.06-.1,0-.18-.07-.19-.16,0-.03,0-.05.01-.08l.1-.24c.08-.16.09-.32.04-.44-.7-1.48-.55-2.87.43-4.16.15-.2.31-.34.41-.34l1.66-.18c.45-.05.85-.27,1.09-.61l9.46-13.37c.08-.11.21-.2.38-.25,2.35-.7,4.75-1.11,7.2-1.22.15,0,.3-.08.39-.2.27-.33.15-.51-.39-.56l4.7-.52h0Z"/>
      <path class="st2" d="M85,26.89c.53.05.66.23.39.56-.1.12-.24.19-.39.2-2.45.11-4.84.51-7.2,1.22-.16.05-.29.14-.38.25l-9.46,13.37c-.24.34-.64.56-1.09.61l-1.66.18c-.1,0-.26.14-.41.34-.98,1.3-1.13,2.69-.43,4.16.05.11.04.28-.04.44l-.1.24c-.04.08,0,.18.1.22.03.01.05.02.08.01,3.84-.12,7.34-.7,10.42-1.06,2.59-.3,5.78-1.1,8.88-1.14.66-.01,1.28-.41,1.93-.45,2.25-.17,4.48-.49,6.68-.97,2.68-.2,5.73-.55,9.13-1.06,1.11-.17,1.93.25,2.46,1.25-.54.12-.71.44-.52.97l-.13-.52c-.39-.78-.86-1.12-1.42-1.04-2.59.35-5.14.44-7.74.97-3.67.75-7.48,1.02-11.07,1.57-10.84,1.66-25.26,3.39-46.78,6.33-.08-.85-.06-1.67.07-2.46.11-.73-.05-1.09-.64-1.46-.14-.09-.25-.22-.29-.34-.15-.52-.08-1.01.2-1.47.07-.11.16-.19.26-.22l2.99-.86c.18-.05.31-.19.32-.35.02-.28-.13-.42-.44-.43l8.35-11.16,2.61-3.45c.11-.14.26-.23.42-.25l13.01-1.59c.34.33-8.71,12.61-9.63,13.88-.17.24-.35.41-.53.52-.16.09-.16.13-.01.11l14.36-1.87c.12-.01.26-.12.38-.29l9.42-13.83c2.58-.56,5.23-.93,7.94-1.12h0Z"/>
      <path class="st3" d="M77.07,28.01l-9.42,13.83c-.11.17-.26.28-.38.29l-14.36,1.87c-.15.02-.15-.02.01-.11.18-.11.36-.28.53-.52.92-1.27,9.97-13.55,9.63-13.88,4.64-.67,9.3-1.17,13.98-1.49h0Z"/>
      <path class="st22" d="M47.05,34.78l-8.35,11.16c-4.77.79-9.6,1.35-14.48,1.68-.17.01-.21-.05-.1-.19l10.88-14.57,8-1.01,5.09-.67c.69-.09.8.11.32.61-.68.71-1.14,1.71-1.36,2.99Z"/>
      <path class="st26" d="M19.52,32.5l-13.18,3.56-.67-1.98c.19-.19.41-.33.66-.41.12-.04.25.03.3.16,0,0,0,.01,0,.02.21.72.82.99,1.82.79,3.4-.66,6.73-1.53,10.02-2.61.57-.19.92-.03,1.04.46Z"/>
      <path class="st30" d="M35,32.86l-10.88,14.57c-.1.14-.07.2.1.19,4.88-.33,9.71-.89,14.48-1.68.31,0,.46.15.44.43-.01.16-.14.3-.32.35l-2.99.86c-.1.03-.19.11-.26.22-.28.46-.35.95-.2,1.47.04.13.14.25.29.34.58.38.75.73.64,1.46-.13.79-.15,1.61-.07,2.46l-18.41,2.59c-1.11-.04-1.54.54-1.31,1.72,3.35,17.32,6.78,37.77,10.15,56.72.16.87.65,1.22,1.49,1.04l10.71-2.27,20.97-3.99,12.15-2.57c3.84-.46,7.66-1.15,11.46-2.08,2.61-.31,5.18-.8,7.72-1.46l5.85-1.15c6.87-1.13,13.81-2.44,20.8-3.95.27-.06.45-.32.39-.6,0-.01,0-.03-.01-.04l-13.77-46.83c-.1-1.06-.38-2.05-.81-2.94l-.23-1.49c-.19-.53-.02-.85.52-.97,2.48,8.88,5.05,17.72,7.72,26.54.85,2.81,1.85,5.47,2.45,7.87.89,3.58,1.94,7.11,3.13,10.6.71,2.09,1.18,4.39,1.87,6.58.34,1.07-.03,1.75-1.11,2.04-3.37.9-7.05,1.39-10.31,2.1-3.72.81-7.76,1.33-11.2,2.05-4.32.9-8.66,1.75-13.01,2.54l-38.64,7.6c-5.65.83-11.18,2.17-16.79,3.28-.16.03-.31.12-.42.25-1.14,1.38-2.14,2.6-3.51,3.74-.58.49-.74,1.14-.49,1.96.72.82,1.27,1.77,1.66,2.84.06.17,0,.23-.17.18-1.87-.58-4.36-6.96-4.93-9.02l-2.44-14.74-3.3-19.05c-.03-1.73-.28-3.42-.74-5.09l-.04-1.04-.26-1.17c-.98-3.96-1.72-7.96-2.22-12,.03-1.18-.17-2.31-.61-3.39l-.04-.13c-.17-2.44-.59-4.83-1.26-7.17l-.43-2.35c3.81-5.45,7.91-10.68,12.28-15.69.11-.12.26-.2.43-.22l13.49-1.49h0ZM23.46,47.72c0-.07-.08-.13-.15-.12l-12.2,1.58c-.07,0-.13.08-.12.15v.06c.02.07.09.13.16.12l12.2-1.58c.07,0,.13-.08.12-.15v-.06Z"/>
      <path class="st37" d="M8.61,48.75l-2.16-12.06c0-.65,11.86-1.93,13.21-2.08.18-.02.34.06.38.17,0,.03,0,.05,0,.08-.11.36-.34.61-.68.75-.15.06-.28.16-.36.28-3.19,4.48-6.65,8.77-10.39,12.86Z"/>
      <path class="st18" d="M107.72,39.44l1.92,6.65c-.43.24-.55.69-.35,1.34.55,1.79,1.1,3.57,1.66,5.35.52,1.63,1.21,3.8,1.49,5.47.28,1.61,1.09,2.92,1.37,4.45.25,1.35.45,2.25.58,2.7,3.07,9.6,5.36,19.43,8.44,29.04.66,2.06.98,3.68.95,4.87-.03,1.69-.38,3.35-1.06,4.97l-1.46.5c0-.08,0-.15-.04-.2-.04-.08-.17-.13-.31-.11-4.05.42-8.33,1.62-11.91,2.24-3.16.55-6.5,1.36-9.42,1.89-6.88,1.25-13.74,2.65-20.56,4.21-3.47.79-9.41,1.85-17.81,3.17,5.69-1.64,11.46-2.94,17.28-3.9,1.73-.28,1.66-1.09,3.95-.82,1.67.2,2.18-1.34,3.26-2.44.16-.16.14-.24-.06-.23h-.27c-.11,0-.25-.1-.35-.27l-1.38-2.3s-.05-.02-.09-.04c-.35-.09-.31-.14.14-.14.13,0,.12-.03-.02-.09-.1-.04-.19-.1-.26-.17,4.35-.79,8.68-1.64,13.01-2.54,3.44-.72,7.48-1.24,11.2-2.05,3.26-.71,6.95-1.21,10.31-2.1,1.08-.29,1.45-.97,1.11-2.04-.69-2.19-1.16-4.49-1.87-6.58-1.19-3.49-2.23-7.02-3.13-10.6-.6-2.41-1.6-5.06-2.45-7.87-2.66-8.81-5.24-17.66-7.72-26.54-.53-1-1.35-1.41-2.46-1.25-3.41.51-6.45.87-9.13,1.06-.2-2.66,2.69-2.77,2.14-5.47-.03-.17.08-.34.25-.37.02,0,.04,0,.06,0,.91.02,1.84-.22,2.77-.7,2.71.26,5.37-.08,7.96-1.01.14-.05.3-.03.43.05.61.38.95.95,1.01,1.71.02.19.11.35.26.46.29.22.46.12.52-.3h0Z"/>
      <path class="st20" d="M103.25,45.7c-2.36-.32-4.86.75-7.13.7-1.48-.04-2.68.38-3.6,1.25l-7.78,1.16c-6.68.65-13.34,1.54-19.96,2.65-7.73.92-15.43,2.05-23.09,3.39l-11.22,1.39c.24-.38.14-.55-.3-.52-4.23.3-8.45.84-12.68,1.61-.14.03-.18-.03-.12-.18l.44-1.04,18.41-2.59c21.52-2.95,35.94-4.68,46.78-6.33,3.6-.55,7.4-.82,11.07-1.57,2.59-.53,5.14-.61,7.74-.97.56-.08,1.04.27,1.42,1.04h0Z"/>
      <path class="st38" d="M103.25,45.7l.13.52.23,1.49c-.59-.75-1.24-1.09-1.93-1.02-3.11.11-6.16.43-9.15.95.92-.87,2.12-1.29,3.6-1.25,2.26.05,4.76-1.02,7.13-.7Z"/>
      <path class="st11" d="M109.64,46.09l4.48,15.52c3.31,11.32,6.57,22.65,9.78,34,1.16,4.11.78,7.55-1.39,11.04-.03.06-.08.1-.13.14-.06.04-.11.06-.17.08-.19.06-.26-.03-.19-.26l.69-2.34c.68-1.62,1.04-3.27,1.06-4.97.02-1.19-.3-2.81-.95-4.87-3.08-9.61-5.37-19.44-8.44-29.04-.14-.45-.33-1.34-.58-2.7-.28-1.53-1.09-2.84-1.37-4.45-.29-1.67-.97-3.84-1.49-5.47-.56-1.77-1.12-3.56-1.66-5.35-.2-.65-.08-1.09.35-1.34h0Z"/>
      <path class="st34" d="M101.68,46.69c-.49.69-1.16,1.02-2.02.98-2.14-.1-3.76.27-5.78.94-.14.05-.23.19-.21.34l.32,3.01c.01.07-.09.14-.22.15,0,0,0,0-.01,0-.11.01-.18.12-.19.32-.14,1.42-.71,2.68-1.7,3.79-.11.12-.17.28-.17.44-.02,1.4-2.3,4.36-3.41,5.09-1.88,1.23-3.6,2.72-5.16,4.45-.6.16-.95.53-1.05,1.11-.02.15,0,.32.09.5.59,1.19.71,2.42.35,3.72-.8-.21-1.33-.54-1.61-1.01l-.55-1.02c-.23-.43-.27-.87-.09-1.1,1.29-1.63,2.2-2.96,2.47-5.13.14-1.1.54-2.51,1.22-4.24.12-.31.02-.43-.31-.37-.11.02-.18-.07-.2-.26-.09-.77.12-1.36.63-1.77.14-.11.23-.26.24-.41.11-1.17-.55-2.04-.29-3.21.03-.12,0-.32-.08-.54-.45-1.21-.18-2.21.81-3,.19-.15.3-.31.29-.41,0-.14-.1-.22-.29-.25l7.78-1.16c2.99-.53,6.04-.85,9.15-.95h0Z"/>
      <path class="st1" d="M101.68,46.69c.69-.08,1.34.26,1.93,1.02.44.9.71,1.88.81,2.94l-5.07,3.37c-3.13,2.01-6.13,4.2-9.02,6.54-.97.6-1.22,1.59-1.99,2.16-.61.44-1.27.76-2.01.97-.56.16-.61.38-.17.68.59.39,1,.92,1.24,1.59.06.15.05.3,0,.42-.54,1.01-.61,2.13-.19,3.38l-2.72,3.08c-.19.21-.15.54.08.73.03.03.07.05.11.07l3.46,1.8c.32.98.43,1.99.33,3.03,0,.09-.09.18-.2.21-.09.03-.17.08-.23.17-.1.14-.09.33.02.45.31.33.42.73.33,1.21-.03.15.04.32.17.46l.76.82-1.94.14c-.21.01-.4-.04-.51-.15-.24-.24-.34-.53-.29-.88.02-.15-.08-.35-.27-.51-.62-.53-.66-1.04-.12-1.54.14-.13.22-.28.2-.41-.14-1.61,0-2.62-1.6-3.48-3.08-1.66.46-3.16-.07-5.25-.32-1.27-.85-2.44-1.61-3.52,1.56-1.73,3.28-3.22,5.16-4.45,1.11-.73,3.4-3.68,3.41-5.09,0-.17.06-.32.17-.44.99-1.11,1.56-2.37,1.7-3.79.02-.2.08-.31.19-.32.13-.01.24-.08.24-.15,0,0,0,0,0,0l-.32-3.01c-.02-.15.07-.29.21-.34,2.02-.67,3.64-1.04,5.78-.94.86.04,1.53-.29,2.02-.98h0Z"/>
      <rect class="st12" x="10.94" y="48.39" width="12.58" height=".33" rx=".16" ry=".16" transform="translate(-6.11 2.62) rotate(-7.4)"/>
      <path class="st32" d="M84.74,48.81c.19.03.29.11.29.25,0,.1-.11.27-.29.41-.99.78-1.26,1.78-.81,3,.08.22.11.42.08.54-.27,1.17.4,2.05.29,3.21-.01.15-.1.3-.24.41-.51.41-.73,1-.63,1.77.02.19.09.28.2.26.32-.06.43.06.31.37-.67,1.73-1.08,3.14-1.22,4.24-.27,2.17-1.18,3.5-2.47,5.13-.18.23-.14.66.09,1.1l.55,1.02c-1.64,1.75-2.15,3.69-1.52,5.83-1.47-.53-1.84-1.49-1.09-2.86.05-.1.08-.26.07-.49-.01-.88-.2-1.71-.55-2.48-.06-.13-.07-.31-.05-.53l.21-1.86c.02-.15.12-.27.23-.26,0,0,.01,0,.02,0,.14.03.24-.01.3-.12.24-.45.35-.85.3-1.1-.29-1.27-.79-1.95-1.51-2.06-.06-.29-.17-.55-.34-.8-.15-.22-.13-.3.08-.24.34.09.67.09,1-.03.11-.04.25.05.35.21,1.53,2.61,1.02-1.53-.11-1.32-.16.03-.32-.02-.4-.13-1.27-1.81-3.57-2.73-5-4.51-.11-.14-.25-.23-.39-.25-.41-.07-.63-.32-.65-.75,0-.11-.18-.22-.42-.26l-1.31-.22c-.27-.05-.45-.06-.54-.03-.65.21-1.23.1-1.74-.32-.14-.11-.12-.18.07-.2.43-.03.55-.15.34-.34-.08-.08-.24-.13-.45-.14l-2.12-.1c-.15,0-.3-.1-.41-.26l-.55-.79c-.06-.08-.09-.24-.08-.44.01-.5-.15-.9-.47-1.21-.11-.1-.14-.27-.08-.43.11-.31.34-.5.69-.56,6.62-1.11,13.28-2,19.96-2.65Z"/>
      <path class="st9" d="M104.42,50.65l13.77,46.83c.08.26-.07.54-.34.63-.01,0-.03,0-.04.01-7,1.51-13.93,2.82-20.8,3.95-.29-.21-.29-.47,0-.78l3.6-.94c1.68-.1,2.71-.21,3.1-.33.76-.24,1.41-.3,1.95-.18.23.05.44.02.52-.07.61-.73,1.38-1.06,2.3-.99.19.02.36-.14.37-.34,0-.01,0-.03,0-.04-.04-1.13.22-2.18.79-3.16.03-.06.05-.24.04-.49-.05-2.08.96-4.06.91-5.7-.06-1.97-1.8-3.77-2.05-5.3-.33-2.01.27-3.6,1.82-4.77.14-.1.23-.25.25-.41.21-1.65.23-2.65.07-3-.59-1.35-.54-2.63-1.23-3.9-1.18-2.18-1.89-4.36-2.11-6.54-.37-3.57-1.47-5.39-2.98-8.3-.62-1.19-1.98-1.41-2.85-2.35-.11-.12-.27-.18-.43-.18-.59.02-1.17-.07-1.71-.28l5.07-3.37h0Z"/>
      <path class="st24" d="M64.78,51.46c-.35.06-.59.25-.69.56-.06.16-.02.33.08.43.33.31.49.71.47,1.21,0,.19.02.36.08.44l.55.79c.11.16.26.25.41.26l2.12.1c.2,0,.37.06.45.14.21.19.09.31-.34.34-.18.02-.21.08-.07.2.51.42,1.09.53,1.74.32.08-.03.26-.02.54.03l1.31.22c.24.04.41.15.42.26.02.42.24.67.65.75.14.02.28.11.39.25,1.43,1.78,3.73,2.7,5,4.51.08.11.23.16.4.13,1.14-.21,1.65,3.93.11,1.32-.1-.16-.24-.25-.35-.21-.33.11-.66.12-1,.03-.21-.06-.24.02-.08.24.17.24.28.51.34.8-1.18-.46-1.81-1.45-3.16-1.36-.18.01-.36-.05-.5-.17l-2.12-1.81c-.1-.09-.19-.24-.24-.42-.08-.29-.03-.55.16-.79.06-.08-.04-.23-.21-.33-.02-.01-.04-.02-.06-.03l-1.19-.57c-.14-.07-.3-.05-.39.04-.64.64-1.34.91-2.08.8-2.23-.31-4.16.02-5.78.99-.16.1-.33.13-.47.1-.93-.23-1.69.02-2.31.75-.12.15-.28.23-.42.24-.79.05-1.06.32-.8.82.03.07.17.16.35.23.14.06.17.14.11.26-.1.18-.08.26.07.22.21-.05.4-.02.56.09.07.04.09.14.04.21-.01.02-.03.04-.05.05-1.95,1.13-5.79,5.36-6.51,7.11-.77,1.89-1.83,3.55-1.81,5.65.02,1.96,1.28,4.68,1.95,6.8.05.17.02.2-.11.07-.21-.21-1.62-2.25-1.67-1.77-.02.12-.05.13-.09.05l-.46-.82c-.16-.3-.22-.27-.16.07.2,1.18.7,2.23,1.51,3.15.37.41.66,1.41.87,3,.03.26.14.45.25.45.26-.01.51.04.74.15.21.11.37.21.39.27.3.68.82,1.08,1.56,1.19.19.03.35.09.45.17.85.71,3.59,2.84,4.87,2.84.23,0,.41.05.53.13l1.75,1.25c.17.12.35.19.5.2,1.61.07,2.39.78,2.35,2.12-.61.31-1.42.48-2.44.51-1.18-.55-2.09-2.68-2.68-2.74-.47-.05-.9-.2-1.29-.45-.85-.54-1.36-.97-1.52-1.29-.08-.16-.18-.27-.27-.29-.58-.14-1.09-.4-1.53-.79-.22-.2-.4-.34-.43-.34l-1.93.13c-.23.02-.41,0-.47-.03-.3-.17-.59-.21-.87-.12-.16.05-.34.04-.49-.04l-1.83-.88c-.2-.1-.34-.24-.39-.38l-.31-1.04c-.06-.18-.14-.32-.23-.38-.63-.41-.93-1.07-.91-1.98.03-.95-.83-1.35-1.13-2.1-.3-.74-.45-1.51-.47-2.32-.02-.9-.56-1.57-1.62-2.02-1.09-.47-2-1.16-2.73-2.09-.86-1.09-.01-2.83-.09-3.92-.08-1.18-.56-2.28-.49-3.4.03-.49.83-5.9.42-5.97-.16-.03-.27-.12-.27-.2.08-.93.33-1.79.77-2.6.08-.14.23-.24.41-.26.62-.07,1.17-.55,1.66-1.45.08-.15.27-.19.43-.09.04.02.08.06.11.1.54.72,1.28,1.05,2.22.99.17-.01.17-.12.02-.32-1.54-2.02-3-4.47-5.29-4.77-.21-.03-.37-.12-.41-.23-.03-.11-.01-.22.06-.34,7.66-1.34,15.36-2.47,23.09-3.39h0Z"/>
      <path class="st7" d="M99.35,54.03c.55.21,1.12.3,1.71.28.16,0,.32.06.43.18.87.93,2.23,1.16,2.85,2.35,1.52,2.91,2.61,4.73,2.98,8.3.22,2.18.93,4.36,2.11,6.54.69,1.27.64,2.55,1.23,3.9.16.35.13,1.35-.07,3-.02.16-.11.31-.25.41-1.54,1.17-2.15,2.76-1.82,4.77.25,1.52,1.99,3.32,2.05,5.3.05,1.64-.97,3.63-.91,5.7,0,.24,0,.43-.04.49-.57.98-.83,2.03-.79,3.16,0,.2-.14.38-.33.39-.01,0-.03,0-.04,0-.92-.08-1.69.25-2.3.99-.08.09-.28.12-.52.07-.54-.12-1.19-.06-1.95.18-.39.12-1.42.23-3.1.33.12-1.55-.15-3.05-.8-4.5-.25-.56-.81-.99-1.12-1.62l-.04-3.49c0-.15-.06-.31-.18-.46-.27-.33-.36-.71-.27-1.14.01-.06-.09-.23-.25-.42-.71-.86-1.63-1.19-2.77-.99-.16.03-.32-.03-.38-.14-.15-.27-.24-.58-.25-.92l.03-2.2c0-.14-.08-.31-.21-.45-.95-1.01-2.1-2.01-3.43-2.99-.73-.54-.99-1.18-.78-1.92,4.22-1.98-.54-4.99-1.99-6.55-.1-.11-.12-.28-.04-.42l1.2-2.17c1.7-1.23,2.36-2.89,1.98-5-.03-.16.01-.33.11-.46,1.12-1.56-1.15-2.27-1.09-3.93,2.89-2.35,5.89-4.53,9.02-6.54h0Z"/>
      <path class="st19" d="M41.7,54.85c-.08.12-.1.24-.06.34.04.11.2.21.41.23,2.3.31,3.75,2.75,5.29,4.77.15.2.15.31-.02.32-.95.07-1.69-.26-2.22-.99-.11-.15-.31-.19-.45-.1-.04.02-.06.06-.09.09-.49.9-1.04,1.38-1.66,1.45-.18.02-.34.12-.41.26-.43.81-.69,1.67-.77,2.6,0,.08.11.17.27.2.42.07-.39,5.49-.42,5.97-.07,1.12.41,2.21.49,3.4.08,1.09-.77,2.83.09,3.92.74.93,1.65,1.63,2.73,2.09,1.05.45,1.59,1.13,1.62,2.02.02.8.18,1.58.47,2.32.3.75,1.15,1.15,1.13,2.1-.02.91.28,1.57.91,1.98.09.06.17.2.23.38l.31,1.04c.04.14.19.29.39.38l1.83.88c.15.07.33.09.49.04.28-.09.57-.05.87.12.06.04.24.05.47.03l1.93-.13s.21.15.43.34c.44.39.95.66,1.53.79.09.02.19.13.27.29.16.33.67.76,1.52,1.29.4.25.83.4,1.29.45.59.06,1.5,2.2,2.68,2.74-.23.93.1,1.25.99.97.17-.05.34-.05.49.02.45.19,2.95,1.75,1.62,1.59l-1.03-.42c-.18-.07-.37-.08-.54-.02l-1.85.62c-.21.07-.23.12-.06.16l.1.02c.16.03.15.11-.03.22-1.04.64-1.93.53-2.69-.33-.15-.17-.3-.27-.39-.28l-.57-.03c-.22,0-.39-.04-.46-.09-1.34-.92-2.91-1.25-4.12-2.07-.7-.47-1.52-1.05-2.46-1.73-.19-.14-.39-.2-.51-.15-.62.23-1.27.33-1.94.29-.07,0-.27.11-.51.27l-1.71,1.17c-.1.07-.16.19-.12.26,0,.02.02.03.03.04l.46.31c.09.06.1.11.01.16-.54.25-1.1.39-1.7.41-.26.01-.26.06.02.16l.81.3c.17.06.17.14.02.22-.53.3-1.12.42-1.76.37-2.16.22-3.25-1.89-5.22-2.44-.21-.06-.37-.17-.43-.3-.45-.95-1.06-1.77-1.83-2.45-.06-.05-.13-.07-.19-.05-.05,0-.09.02-.11.05-.07.07-.16.09-.2.05-.73-.65-1.23-1.55-1.99-2.09-1.76-1.25-3.31-2.71-4.65-4.37-.79-.99-2.16-1.6-2.38-3.35-.02-.17-.1-.32-.22-.43-.79-.69-1.29-1.35-2.3-1.76-1.27-.51-2.52-1.07-3.75-1.68-.15-.07-.32-.07-.47-.01l-.37.16c-.85-4.46-1.69-8.91-2.52-13.37-.42-2.26-.77-5.71-1.48-8.5-.06-.22.08-.45.3-.5.02,0,.03,0,.05,0l12.89-1.64s11.22-1.39,11.22-1.39Z"/>
      <path class="st45" d="M30.48,56.24l-12.89,1.64c-.23.03-.39.23-.36.46,0,.02,0,.04,0,.05.71,2.79,1.06,6.24,1.48,8.5.83,4.46,1.67,8.92,2.52,13.37l2.61,13.96c.36,2.75.83,5.48,1.43,8.2.77,3.51,1.17,7.89,2.5,11.77.06.16.18.28.33.32,1.05.32,1.89.33,2.5.03,2.63-1.29,5.38-1.7,8.25-1.23l-10.71,2.27c-.84.18-1.34-.17-1.49-1.04-3.37-18.95-6.8-39.4-10.15-56.72-.23-1.19.21-1.76,1.31-1.72l-.44,1.04c-.06.15-.02.21.12.18,4.23-.77,8.45-1.3,12.68-1.61.44-.03.54.14.3.52h0Z"/>
      <path class="st6" d="M77.31,64.59c.72.11,1.22.79,1.51,2.06.06.25-.05.65-.3,1.1-.06.11-.16.15-.3.12-.11-.02-.22.09-.24.24,0,0,0,.01,0,.02l-.21,1.86c-.03.22-.01.41.05.53.35.77.53,1.59.55,2.48,0,.23-.02.39-.07.49-.74,1.38-.38,2.33,1.09,2.86.46,1.35-.14,2.62-.23,3.62-.07.83-.15,1.65-.24,2.48-.06.54-.06.89-.01,1.03.74,2.21-.69,1.87-1.86,2.54-1.22.7-1.85,1.79-1.87,3.26,0,.09-.09.27-.24.46-.18.24-.25.51-.22.81,0,.11-.16.21-.39.23,0,0,0,0,0,0-1.72.15-2.65,1.07-2.79,2.75-.02.24-.09.44-.21.57-.47.49-1.05.81-1.75.93-.12.02-.26.13-.38.28-.93,1.26-2.09,1.48-3.49.66.04-1.34-.74-2.05-2.35-2.12-.15-.01-.32-.08-.5-.2l-1.75-1.25c-.11-.08-.3-.13-.53-.13-1.28,0-4.03-2.13-4.87-2.84-.1-.08-.26-.14-.45-.17-.74-.11-1.26-.51-1.56-1.19-.02-.05-.18-.16-.39-.27-.23-.11-.48-.17-.74-.15-.11,0-.22-.19-.25-.45-.22-1.59-.51-2.59-.87-3-.81-.92-1.31-1.97-1.51-3.15-.06-.34,0-.36.16-.07l.46.82c.05.09.08.07.09-.05.06-.47,1.47,1.57,1.67,1.77.13.13.16.11.11-.07-.67-2.12-1.94-4.84-1.95-6.8-.02-2.1,1.04-3.76,1.81-5.65.72-1.75,4.56-5.98,6.51-7.11.08-.05.1-.14.06-.22-.01-.02-.03-.04-.05-.05-.16-.11-.35-.14-.56-.09-.15.03-.17-.04-.07-.22.06-.11.03-.2-.11-.26-.18-.08-.31-.17-.35-.23-.26-.5,0-.77.8-.82.15,0,.3-.09.42-.24.61-.72,1.38-.97,2.31-.75.14.03.31,0,.47-.1,1.62-.97,3.54-1.3,5.78-.99.74.1,1.44-.16,2.08-.8.09-.09.25-.11.39-.04l1.19.57c.19.09.31.24.29.33,0,0,0,.02-.01.03-.18.24-.24.5-.16.79.05.19.14.33.24.42l2.12,1.81c.14.12.32.19.5.17,1.35-.09,1.98.9,3.16,1.36h0Z"/>
      <path class="st22" d="M10.54,59.92c.44,1.08.65,2.21.61,3.39-.64-1.02-.85-2.15-.61-3.39Z"/>
      <path class="st42" d="M90.33,60.57c-.07,1.66,2.2,2.37,1.09,3.93-.1.14-.14.3-.11.46.38,2.1-.28,3.77-1.98,5-.08-.31-.23-.56-.46-.76-.13-.11-.3-.13-.45-.05l-1.21.62c-.42-1.25-.35-2.38.19-3.38.06-.11.06-.27,0-.42-.24-.67-.65-1.2-1.24-1.59-.45-.3-.39-.52.17-.68.73-.21,1.4-.53,2.01-.97.78-.57,1.02-1.56,1.99-2.16h0Z"/>
      <path class="st14" d="M83.12,66.21c.76,1.08,1.3,2.25,1.61,3.52.53,2.09-3.01,3.59.07,5.25,1.6.86,1.46,1.87,1.6,3.48.01.13-.06.28-.2.41-.54.5-.5,1.01.12,1.54.19.16.29.36.27.51-.05.34.04.64.29.88.11.11.3.16.51.15l1.94-.14c.55.34.69.76.4,1.25-.13.22-.19.43-.14.48.17.17.27.37.3.61,0,.07.18.2.43.32.88.43.86,1.3,1.33,1.86.79.95,1.74,1.64,2.86,2.08l.4,1.13c.07.18.03.26-.1.23l-1.34-.32c-.09-.02-.18.04-.2.14,0,.03,0,.05,0,.08.19,1.05,1.02,1.71,1.16,2.67.1.67.11,1.34,0,2.01-.02.13.04.28.17.4.34.33-.46,1.01-.69,1.49-.07.14-.21.23-.37.26-2.07.29.58,2.82.91,3.61.07.15.19.28.33.34,2.69,1.19-3.18,1.95-3.97,2.18l-.05-5.93c0-.2-.05-.38-.14-.51l-1.3-1.83c-.07-.1-.11-.3-.12-.53-.01-.53.21-.9.68-1.11.11-.05.13-.23.06-.43-.66-1.69-1.37-3.37-2.13-5.02-.51-1.11-1.33-1.83-2.12-2.74-.08-.09-.22-.1-.31-.02-.01.01-.02.02-.03.04l-.58.83c-.37-1.27-.11-2.34.78-3.23.19-.19.28-.4.2-.49l-1.37-1.65c-.14-.17-.24-.31-.23-.34l.08-1.87c.83-1.21-1.81-2.77-2.44-3.42-.11-.12-.15-.29-.1-.44l.85-2.4c.36-1.29.25-2.53-.35-3.72-.08-.17-.12-.35-.09-.5.1-.58.45-.95,1.05-1.11h0Z"/>
      <path class="st13" d="M89.33,69.96l-1.2,2.17c-.08.14-.06.31.04.42,1.45,1.56,6.2,4.58,1.99,6.55.22-1.8-.45-3.01-2.02-3.64l-3.46-1.8c-.27-.14-.38-.46-.26-.71.02-.04.04-.07.07-.1l2.72-3.08,1.21-.62c.15-.08.32-.06.45.05.23.2.38.45.46.76h0Z"/>
      <path class="st15" d="M80.89,70.52c.28.47.82.8,1.61,1.01l-.85,2.4c-.05.15-.02.33.1.44.63.66,3.27,2.21,2.44,3.42l-.86.71c-.1.08-.16.25-.16.46v2.22c0,.07.04.13.08.14.01,0,.03,0,.04,0l.1-.05c.25-.13.27-.06.06.22l-.96,1.25c-.11.15-.18.3-.18.41.01.88.26,1.71.74,2.48-.55.63-.91,1.34-1.08,2.12-.03.15-.12.28-.25.36-.15.09-.31.15-.48.16-.09.01-.21.21-.29.49-.32,1.21-.98,2.16-1.99,2.85-.15.1-.26.24-.33.41-.73,1.94-.21,4.58-2.49,5.7-.22.11-.38.22-.43.31-.75,1.18-1.82,1.91-3.21,2.19-.19.04-.35.12-.46.25-.29.32-.24.46.14.44.14,0,.27.05.29.14,0,.02,0,.04,0,.06-.27.69-.22,1.35.18,1.96.1.16.12.37.06.57-.22.67-.14,1.31.22,1.92.1.17.24.27.37.26,2.84-.18,5.6-.74,8.29-1.66.42-.14.99-.13,1.71.04l.13.52c-3.8.93-7.62,1.62-11.46,2.08-1.15-.28-2.33-.34-3.55-.18-.15.02-.28-.08-.31-.22-.39-1.83-1.86-2.57-2.1-4.28-.04-.31-.35-1.34.26-.74.05.05.18,0,.29-.11,0,0,0,0,0,0,.29-.3.27-.56-.05-.78-.1-.07-.13-.26-.07-.45.11-.33.08-.64-.09-.93,1.34.16-1.16-1.4-1.62-1.59-.14-.06-.32-.07-.49-.02-.89.29-1.22-.03-.99-.97,1.02-.02,1.84-.19,2.44-.51,1.4.82,2.56.6,3.49-.66.12-.16.25-.26.38-.28.7-.13,1.28-.44,1.75-.93.12-.13.19-.33.21-.57.14-1.68,1.06-2.6,2.79-2.75.22-.02.4-.12.39-.23,0,0,0,0,0,0-.03-.3.04-.57.22-.81.15-.2.24-.37.24-.46.02-1.47.65-2.56,1.87-3.26,1.17-.67,2.6-.33,1.86-2.54-.05-.15-.05-.49.01-1.03.09-.82.17-1.65.24-2.48.09-1,.69-2.28.23-3.62-.63-2.14-.12-4.09,1.52-5.83h0Z"/>
      <path class="st5" d="M13.37,75.31l.26,1.17c-.67-.19-.75-.58-.26-1.17Z"/>
      <path class="st21" d="M88.14,75.46c1.57.63,2.25,1.84,2.02,3.64-.21.74.05,1.38.78,1.92,1.33.98,2.48,1.98,3.43,2.99.13.14.21.31.21.45l-.03,2.2-.06,1.75c-1.12-.44-2.07-1.13-2.86-2.08-.47-.56-.45-1.43-1.33-1.86-.24-.12-.42-.25-.43-.32-.03-.23-.13-.43-.3-.61-.05-.05.01-.26.14-.48.29-.49.16-.9-.4-1.25l-.76-.82c-.13-.14-.19-.31-.17-.46.09-.48-.02-.88-.33-1.21-.11-.12-.12-.31-.02-.45.06-.08.14-.14.23-.17.11-.03.19-.12.2-.21.1-1.04,0-2.05-.33-3.03h0Z"/>
      <path class="st27" d="M13.67,77.53c.46,1.66.71,3.36.74,5.09l-.74-3.13v-1.96Z"/>
      <path class="st31" d="M84.2,77.79l-.08,1.87s.1.18.23.34l1.37,1.65c.07.09-.02.3-.2.49-.89.89-1.15,1.96-.78,3.23l.3.71-1.13.43c-.11.04-.23,0-.26-.1,0,0,0-.01,0-.02-.1-.33-.29-.6-.58-.79-.48-.77-.72-1.59-.74-2.48,0-.11.06-.25.18-.41l.96-1.25c.21-.28.19-.35-.06-.22l-.1.05s-.1,0-.12-.07c0-.02,0-.04,0-.06v-2.22c0-.21.06-.38.16-.46l.86-.71h0Z"/>
      <path class="st44" d="M45.35,98.94c.46.19.41.29-.14.28-.15,0-.29.05-.4.14-.57.48-1.37,1.52-2.22,1.1-.15-.07-.32-.09-.46-.05l-.78.26c-.08.03-.08.05,0,.05l2.7.31c.08.01.08.03.01.07-.13.07-.14.11-.01.12,1.13.08,3.66-.45,4.07.84-1.68-.56-3.33-.5-4.97.18-.09.04-.1.09-.02.15.43.32-.94.33-1.16.76-.08.16-.23.27-.39.3-2.96.56-5.68.02-8.16-1.63-.04-.03-.07-.08-.07-.15v-.14c0-.05.09-.07.19-.03.02,0,.04.02.06.03.82.43,1.03.32.64-.34-.13-.2-.2-.37-.19-.44.03-.32-.07-.55-.3-.7-.16-.11-.28-.23-.34-.34-.61-1.21-2.66-2.62-3.74-3.55-.02-.02-.06,0-.07.02,0,0,0,.01,0,.02-.12.42-2.13-1.1-2.32-1.26-.12-.1-.28-.17-.46-.2l-2.96-.5-2.61-13.96.37-.16c.15-.06.32-.06.47.01,1.23.61,2.48,1.17,3.75,1.68,1.01.41,1.51,1.07,2.3,1.76.12.11.2.26.22.43.22,1.75,1.59,2.36,2.38,3.35,1.34,1.66,2.89,3.12,4.65,4.37.76.54,1.26,1.45,1.99,2.09.04.04.13.01.2-.05.03-.02.07-.04.11-.05.07-.01.14,0,.19.05.77.68,1.38,1.5,1.83,2.45.06.13.22.24.43.3,1.97.55,3.06,2.66,5.22,2.44h0Z"/>
      <path class="st10" d="M90.8,102.63c.18.2.3.4.35.6-2.54.66-5.11,1.14-7.72,1.46l-.13-.52,3.53-.86c.16-.04.27-.17.24-.31,0,0,0-.01,0-.02-.26-.86-.83-1.27-1.72-1.24-.14,0-.27-.11-.33-.29-.18-.54,2.11-.69,2.54-.75.15-.02.26-.14.26-.29.03-2.37.33-4.87-.53-7.12-.06-.15-.08-.32-.06-.5.25-2.14-1.04-5.14-2.2-6.7l-.3-.71.58-.83c.07-.1.2-.12.3-.05.01,0,.03.02.04.03.8.91,1.61,1.63,2.12,2.74.76,1.66,1.47,3.33,2.13,5.02.07.19.05.38-.06.43-.47.21-.7.58-.68,1.11,0,.24.05.43.12.53l1.3,1.83c.09.13.14.31.14.51l.05,5.93h0Z"/>
      <path class="st40" d="M83.07,85.62c.29.19.48.45.58.79.03.1.14.15.25.12,0,0,.01,0,.02,0l1.13-.43c1.16,1.56,2.45,4.56,2.2,6.7-.02.18,0,.35.06.5.86,2.25.55,4.75.53,7.12,0,.15-.11.27-.26.29-.43.06-2.72.21-2.54.75.06.17.19.29.33.29.89-.03,1.46.38,1.72,1.24.04.13-.06.27-.21.32,0,0-.01,0-.02,0l-3.53.86c-.72-.17-1.29-.18-1.71-.04-2.69.93-5.45,1.48-8.29,1.66-.12,0-.26-.1-.37-.26-.36-.6-.43-1.24-.22-1.92.07-.2.04-.41-.06-.57-.39-.62-.45-1.27-.18-1.96.03-.08-.06-.17-.19-.19-.03,0-.07,0-.1,0-.38.02-.42-.12-.14-.44.11-.12.27-.21.46-.25,1.39-.27,2.46-1,3.21-2.19.06-.09.21-.2.43-.31,2.28-1.12,1.76-3.76,2.49-5.7.07-.17.18-.31.33-.41,1.01-.69,1.67-1.64,1.99-2.85.07-.27.19-.47.29-.49.17-.01.33-.07.48-.16.13-.08.22-.21.25-.36.17-.78.53-1.49,1.08-2.12h0Z"/>
      <path class="st43" d="M94.55,86.66c.01.35.1.66.25.92.06.11.22.17.38.14,1.13-.2,2.05.13,2.77.99.16.19.26.36.25.42-.09.43,0,.82.27,1.14.12.15.18.31.18.46l.04,3.49c-.33-.17-.61-.39-.83-.67-.11-.14-.18-.12-.21.04-.2,1.25.68,3.68-.76,4.35-.19.09-.33.21-.38.34-.29.7-.38,1.44-.26,2.21.02.17,0,.36-.09.52-.22.43.06.53.86.28-.29.31-.29.57,0,.78l-5.85,1.15c-.06-.2-.17-.4-.35-.6.78-.23,6.65-.99,3.97-2.18-.15-.07-.27-.19-.33-.34-.33-.78-2.98-3.31-.91-3.61.16-.02.3-.12.37-.26.23-.49,1.04-1.16.69-1.49-.13-.12-.19-.27-.17-.4.1-.67.1-1.34,0-2.01-.14-.96-.98-1.62-1.16-2.67-.02-.1.04-.2.13-.22.02,0,.05,0,.07,0l1.34.32c.13.03.17-.05.1-.23l-.4-1.13.06-1.75h0Z"/>
      <path class="st36" d="M98.68,94.22c.31.64.87,1.06,1.12,1.62.65,1.44.92,2.94.8,4.5l-3.6.94c-.79.25-1.08.15-.86-.28.08-.17.12-.35.09-.52-.11-.77-.03-1.5.26-2.21.05-.13.19-.25.38-.34,1.44-.67.55-3.1.76-4.35.03-.16.1-.17.21-.04.23.28.5.5.83.67h0Z"/>
      <path class="st0" d="M48.11,102.05l.69.87c.05.07.22.16.45.21.43.12.81.35,1.11.69.04.04.06.21.05.43-.02.49.46,1.22,1.45,2.19.03.03.08.06.13.06,2.03.21,4.63-1.52,5.98.15.04.05,0,.19-.09.34-.25.41-.38.84-.41,1.31,0,.12.17.24.41.27l1.83.25c.13.02.21.13.2.24,0,0,0,.02,0,.03l-.06.23-20.97,3.99c-2.87-.47-5.62-.06-8.25,1.23-.61.3-1.45.29-2.5-.03-.15-.05-.28-.17-.33-.32-1.33-3.88-1.73-8.26-2.5-11.77-.59-2.71-1.07-5.45-1.43-8.2l2.96.5c.18.03.34.1.46.2.19.16,2.2,1.68,2.32,1.26,0-.03.04-.05.07-.04,0,0,.01,0,.02,0,1.07.93,3.13,2.35,3.74,3.55.06.12.18.24.34.34.23.15.33.38.3.7-.01.06.06.24.19.44.39.66.18.77-.64.34-.1-.05-.2-.06-.24-.02,0,0-.01.02-.01.03v.14c0,.07.03.13.07.15,2.48,1.65,5.2,2.19,8.16,1.63.16-.03.31-.14.39-.3.22-.43,1.59-.43,1.16-.76-.08-.06-.08-.11.02-.15,1.64-.68,3.3-.74,4.97-.18h0Z"/>
      <path class="st17" d="M66.35,99.07c.17.3.2.61.09.93-.06.19-.03.38.07.45.32.22.34.48.05.78-.11.11-.24.16-.29.11,0,0,0,0,0,0-.61-.6-.3.43-.26.74.25,1.71,1.71,2.45,2.1,4.28.03.14.16.24.31.22,1.21-.16,2.4-.1,3.55.18l-12.15,2.57.06-.23c.03-.11-.04-.23-.16-.27,0,0-.02,0-.03,0l-1.83-.25c-.24-.03-.42-.15-.41-.27.03-.47.17-.9.41-1.31.09-.15.13-.29.09-.34-1.35-1.67-3.95.06-5.98-.15-.05,0-.1-.03-.13-.06-.99-.97-1.47-1.7-1.45-2.19,0-.22,0-.39-.05-.43-.31-.34-.68-.58-1.11-.69-.23-.06-.4-.14-.45-.21l-.69-.87c-.41-1.29-2.94-.76-4.07-.84-.13,0-.12-.05.01-.12.07-.04.07-.06-.01-.07l-2.7-.31c-.08,0-.09-.02,0-.05l.78-.26c.14-.04.31-.03.46.05.85.42,1.65-.62,2.22-1.1.11-.09.25-.14.4-.14.55.01.6-.08.14-.28.65.05,1.23-.07,1.76-.37.15-.09.15-.16-.02-.22l-.81-.3c-.27-.1-.28-.15-.02-.16.59-.02,1.16-.16,1.7-.41.09-.04.08-.09-.01-.16l-.46-.31c-.07-.04-.06-.16.03-.25.02-.02.04-.04.06-.05l1.71-1.17c.24-.16.44-.27.51-.27.67.04,1.31-.06,1.94-.29.12-.04.31.01.51.15.94.68,1.76,1.25,2.46,1.73,1.21.82,2.78,1.15,4.12,2.07.07.05.25.08.46.09l.57.03c.09,0,.24.11.39.28.76.86,1.66.97,2.69.33.18-.11.19-.18.03-.22l-.1-.02c-.17-.04-.15-.09.06-.16l1.85-.62c.18-.06.37-.05.54.02l1.03.42Z"/>
      <path class="st12" d="M121.27,104.77l-.39.3c-2.77.62-10.64,2.22-23.61,4.81-15.7,3.13-31.4,6.27-47.09,9.41l-23.23,4.63-3.37-1.52c-.25-.82-.09-1.47.49-1.96,1.36-1.13,2.36-2.36,3.51-3.74.11-.13.26-.22.42-.25,5.61-1.11,11.14-2.44,16.79-3.28.16,2.07-1.54,3.39-2.79,4.76-.14.15-.21.31-.19.42.06.37.01.7-.15,1.01-.07.13-.26.2-.46.16-.98-.17-1.65-.18-2.01-.03-1.88.78-3.82,1.27-5.84,1.46-.7.07-1.47.38-2.32.94-.13.09-.21.17-.24.26-.06.18.04.24.32.17,9.99-2.34,20.27-3.56,30.12-6.36,8.4-1.32,14.34-2.38,17.81-3.17,6.82-1.55,13.67-2.96,20.56-4.21,2.92-.53,6.26-1.34,9.42-1.89,3.58-.62,7.86-1.83,11.91-2.24.14-.02.26.03.31.11.03.06.04.12.04.2h0Z"/>
      <path class="st33" d="M120.88,105.07l-.32.49c-.1.15-.13.31-.1.44.1.41-.03.74-.38.99-.1.07-.14.23-.12.41.05.42-.05.8-.28,1.14-.04.06-.25.12-.52.15-.77.08-2.19.34-4.28.79-9.13,1.95-26.83,5.51-53.09,10.69.06-.72-3-.7-3.53-.76-.22-.02-.39-.14-.38-.25,0,0,0-.01,0-.01.01-.08,0-.15-.03-.23-.04-.08-.25-.1-.5-.06-3.3.54-5.6.86-6.91.98-.3.03-.39-.15-.26-.53,15.7-3.14,31.39-6.28,47.09-9.41,12.97-2.58,20.84-4.19,23.61-4.81Z"/>
      <path class="st11" d="M83.43,105.57c.07.07.15.13.26.17.14.06.14.09.02.09-.45,0-.5.05-.14.14.04.01.08.03.09.04l1.38,2.3c.1.17.24.27.35.27h.27c.2-.01.22.07.06.23-1.08,1.1-1.59,2.64-3.26,2.44-2.29-.27-2.22.54-3.95.82-5.83.96-11.59,2.26-17.28,3.9-9.85,2.8-20.13,4.02-30.12,6.36-.27.07-.38,0-.32-.17.03-.08.11-.17.24-.26.84-.56,1.61-.87,2.32-.94,2.02-.19,3.97-.68,5.84-1.46.37-.15,1.04-.14,2.01.03.2.04.39-.03.46-.16.16-.31.21-.64.15-1.01-.02-.11.05-.27.19-.42,1.24-1.37,2.94-2.7,2.79-4.76l38.64-7.6h0Z"/>
      <path class="st35" d="M61.78,120.16c-10.32,2.17-20.67,4.26-31.02,6.27-1.16.23-1.99.28-2.48.16-1.13-.28-1.58-1.17-1.34-2.67l23.23-4.63c-.13.38-.04.55.26.53,1.3-.11,3.61-.44,6.91-.98.25-.04.46-.02.5.06.03.08.05.16.03.23-.02.11.14.23.35.26,0,0,.02,0,.03,0,.54.05,3.6.04,3.53.76Z"/>
    </g>
  </g>
</svg>