<?xml version="1.0" encoding="utf-8"?>
<!-- Generator: Adobe Illustrator 27.0.0, SVG Export Plug-In . SVG Version: 6.00 Build 0)  -->
<svg version="1.1" id="Layer_1" xmlns="http://www.w3.org/2000/svg" xmlns:xlink="http://www.w3.org/1999/xlink" x="0px" y="0px"
	 viewBox="0 0 128 128" style="enable-background:new 0 0 128 128;" xml:space="preserve">
<style type="text/css">
	.st0{fill:#3A0202;}
	.st1{fill:#FF9A00;}
</style>
<g>
	<rect class="st0" width="128" height="128"/>
	<g>
		<rect x="86.5" y="50.7" class="st1" width="12" height="45"/>
		<path class="st1" d="M92.1,44.6c3.8,0,6.5-2.5,6.5-6.1c0-3.6-2.7-6.2-6.4-6.2c-3.7,0-6.4,2.6-6.4,6.2
			C85.8,42.1,88.5,44.6,92.1,44.6z"/>
		<path class="st1" d="M39.7,95.6c1.1,0,1.6-0.3,1.9-1.4c1.4-4.9,3-9.8,4.4-14.7c0.3-1.2,0.9-1.5,2-1.5c5.5,0.1,11,0.1,16.6,0
			c1.1,0,1.5,0.3,1.8,1.3c1.5,4.9,3.1,9.9,4.6,14.8c0.3,1,0.7,1.5,1.9,1.4c1.6-0.1,3.3,0,4.9,0h5.7c0,0,0-0.5,0-0.6
			C77,75,70.4,54.7,63.9,34.6c-0.3-0.8-0.8-0.9-1.5-0.9c-3.9,0-7.8,0.1-11.7,0c-1.2,0-1.8,0.3-2.1,1.5c-5.5,17.2-11,34.4-16.5,51.6
			c-0.9,2.8-1.8,5.6-2.7,8.7C33,95.6,36.3,95.5,39.7,95.6z M56,42.9c2.6,8.5,5.2,16.8,7.8,25.8H48.4C51,59.7,53.5,51.4,56,42.9z"/>
	</g>
</g>
</svg>
