<?xml version="1.0" encoding="UTF-8"?>
<svg xmlns="http://www.w3.org/2000/svg" version="1.1" viewBox="0 0 128 128">
  <defs>
    <style>
      .cls-1 {
        fill: #f66035;
      }

      .cls-2 {
        fill: #fff;
      }
    </style>
  </defs>
  <!-- Generator: Adobe Illustrator 28.6.0, SVG Export Plug-In . SVG Version: 1.2.0 Build 709)  -->
  <g>
    <g id="Layer_1">
      <g id="Layer_1-2" data-name="Layer_1">
        <g>
          <path class="cls-1" d="M109.7,4.9H18.8c-7.5,0-13.6,6.1-13.6,13.6v90.9c0,7.5,6.1,13.6,13.6,13.6h90.9c7.5,0,13.6-6.1,13.6-13.6V18.5c0-7.5-6.1-13.6-13.6-13.6Z"/>
          <g>
            <path class="cls-2" d="M85.3,46.8v12.5c-2-1.5-4.2-2.3-6.9-2.3-6.6,0-12.1,5.4-12.1,12.1s5.4,12.1,12.1,12.1,4.9-.8,6.9-2.3v1.8h6.1v-33.9s-6.1,0-6.1,0ZM79,75.4c-3.5,0-6.5-2.9-6.5-6.5s2.9-6.5,6.5-6.5,6.5,2.9,6.5,6.5-2.9,6.5-6.5,6.5Z"/>
            <path class="cls-2" d="M30.7,46.8v12.5c-2-1.5-4.2-2.3-6.9-2.3-6.6,0-12.1,5.4-12.1,12.1s5.4,12.1,12.1,12.1,4.9-.8,6.9-2.3v1.8h6.1v-33.9s-6.1,0-6.1,0ZM24.3,75.4c-3.5,0-6.5-2.9-6.5-6.5s2.9-6.5,6.5-6.5,6.5,2.9,6.5,6.5-2.9,6.5-6.5,6.5Z"/>
            <path class="cls-2" d="M95.5,60.4l2.1,4.2c2.5-1.7,4.8-2.6,7.6-2.6,5.4,0,5.5,4.2,5.5,4.2,0,0-3-.2-5.4,0-3.2,0-10.1,1.1-10.1,7.8s3.5,7.4,8.4,7.4,6.8-1.8,7.3-2.6v2.1h6v-13.7c0-4.5-3-10.1-11.5-10.1s-8.3,2.4-9.8,3.5h-.2ZM104.3,76.5c-1.4,0-3.7-.4-3.7-3s2.3-3,4.6-3h5.4c0,4.2-3.5,6-6.3,6h0Z"/>
            <path class="cls-2" d="M46.8,70c0,2.6,2.1,4.7,4.7,4.7h.3c2.6,0,4.7-2.1,4.7-4.7v-11.6h6.1v22.3h-5.9v-2.9c-.6.9-2.5,2.8-6.6,2.8s-5.7-1.4-7.2-3.1-2.3-4.2-2.3-7.6v-11.5h6.1v11.6h0Z"/>
          </g>
        </g>
      </g>
    </g>
  </g>
</svg>