<?xml version="1.0" encoding="UTF-8"?>
<svg xmlns="http://www.w3.org/2000/svg" version="1.1" viewBox="0 0 128 128">
  <defs>
    <style>
      .cls-1 {
        fill: #5fa04e;
      }
    </style>
  </defs>
  <!-- Generator: Adobe Illustrator 28.6.0, SVG Export Plug-In . SVG Version: 1.2.0 Build 709)  -->
  <g>
    <g id="Layer_1">
      <g id="Layer_1-2" data-name="Layer_1">
        <path class="cls-1" d="M64,5c-1.6,0-3.1.4-4.5,1.1L16.5,31.2c-2.8,1.7-4.5,4.6-4.5,7.9v50c0,3.2,1.8,6.3,4.5,7.9l11.3,6.5c5.5,2.7,7.5,2.7,9.9,2.7,8.1,0,12.7-5,12.7-13.6v-49.3c0-.7-.6-1.3-1.3-1.3h-5.5c-.7,0-1.3.6-1.3,1.3v49.3c0,3.8-4,7.6-10.3,4.3l-11.7-6.8c-.5-.2-.6-.7-.6-1.2v-50c0-.5.2-.9.6-1.2L63.3,12.8c.4-.2.8-.2,1.3,0l43,24.9c.5.2.6.6.6,1.2v50c0,.6-.2,1-.6,1.2l-43,25.1c-.4.2-.8.2-1.3,0l-11-6.6c-.4-.2-.7-.4-1.1,0-3,1.8-3.5,1.9-6.5,2.9-.6.2-1.8.6.5,1.8l14.3,8.6c1.4.7,2.9,1.2,4.5,1.2s3.2-.5,4.5-.9l43-25.1c2.8-1.7,4.5-4.7,4.5-7.9v-50c0-3.2-1.8-6.3-4.5-7.9L68.5,6.1c-1.4-.7-3-1.1-4.5-1.1ZM75.7,40.5c-12.3,0-19.6,5.2-19.6,14s7.3,12,19.1,13.2c14.1,1.4,15.2,3.5,15.2,6.3,0,4.9-3.9,6.9-12.9,6.9s-13.9-2.9-14.8-8.6c0-.6-.6-1.1-1.2-1.1h-5.6c-.7,0-1.3.6-1.3,1.3,0,7.4,3.9,16,22.8,16s21.5-5.4,21.5-14.9-6.3-11.8-19.5-13.6c-13.4-1.8-14.8-2.7-14.8-5.8s1.2-6.1,11.1-6.1,12.2,1.9,13.5,7.9c0,.6.6.9,1.2.9h5.7c.4,0,.6-.2.8-.5.2-.3.3-.6.3-1-.8-10.4-7.7-15.2-21.5-15.2h0v.2Z"/>
      </g>
    </g>
  </g>
</svg>