<?xml version="1.0" encoding="UTF-8"?>
<svg xmlns="http://www.w3.org/2000/svg" version="1.1" xmlns:xlink="http://www.w3.org/1999/xlink" viewBox="0 0 128 128">
  <defs>
    <style>
      .cls-1 {
        fill: #712cf9;
      }

      .cls-2 {
        fill: url(#linear-gradient);
      }
    </style>
    <linearGradient id="linear-gradient" x1="2937.4" y1="-1440.9" x2="3037.4" y2="-1610" gradientTransform="translate(-673.6 -311.4) scale(.2 -.2)" gradientUnits="userSpaceOnUse">
      <stop offset="0" stop-color="#fff"/>
      <stop offset="1" stop-color="#f1e5fc"/>
    </linearGradient>
  </defs>
  <!-- Generator: Adobe Illustrator 28.6.0, SVG Export Plug-In . SVG Version: 1.2.0 Build 709)  -->
  <g>
    <g id="Layer_1">
      <path class="cls-1" d="M15,27.7c-.2-6.8,5.1-13.1,12.2-13.1h73.5c7.2,0,12.5,6.3,12.2,13.1-.2,6.5,0,15,2.2,21.9,2.1,6.9,5.8,11.3,11.7,11.9v6.4c-5.9.6-9.5,4.9-11.7,11.9-2.1,6.9-2.4,15.4-2.2,21.9.2,6.8-5.1,13.1-12.2,13.1H27.2c-7.2,0-12.5-6.3-12.2-13.1.2-6.5,0-15-2.2-21.9-2.1-6.9-5.8-11.3-11.7-11.9v-6.4c5.9-.6,9.5-4.9,11.7-11.9,2.1-6.9,2.4-15.4,2.2-21.9Z"/>
      <path class="cls-2" d="M67.1,91.7c11.6,0,18.6-5.7,18.6-15.1s-5-12.2-12.4-13v-.3c5.4-.9,9.7-5.9,9.7-11.6,0-8.1-6.4-13.3-16-13.3h-21.8v53.3h21.9ZM53.7,45.2h11.3c6.1,0,9.6,2.7,9.6,7.7s-4,8.2-11.4,8.2h-9.5v-15.9ZM53.7,85v-17.5h11.2c8,0,12.2,3,12.2,8.7s-4,8.8-11.7,8.8h-11.7Z"/>
    </g>
  </g>
</svg>