<?xml version="1.0" encoding="utf-8"?>
<!-- Generator: Adobe Illustrator 27.0.0, SVG Export Plug-In . SVG Version: 6.00 Build 0)  -->
<svg version="1.1" xmlns="http://www.w3.org/2000/svg" xmlns:xlink="http://www.w3.org/1999/xlink" x="0px" y="0px"
	 viewBox="0 0 48 48" style="enable-background:new 0 0 48 48;" xml:space="preserve">
<style type="text/css">
	.st0{fill:#2B2B2B;}
	.st1{fill:#FFFFFF;}
</style>
<g id="Layer_1">
</g>
<g id="Layer_2">
	<g>
		<rect class="st0" width="48" height="48"/>
		<path class="st1" d="M1.02,31.8l4.1-3.87c1.15,1.34,2.16,2.13,3.6,2.13c1.57,0,2.59-1.08,2.59-3.21V12.33h6.32v14.55
			c0,2.88-0.72,4.91-2.26,6.46c-1.54,1.54-3.67,2.33-6.29,2.33C5.05,35.67,2.69,33.99,1.02,31.8z"/>
		<path class="st1" d="M18.25,32.71c0-1.69,1.17-2.87,2.81-2.87c1.65,0,2.79,1.15,2.81,2.87c0,1.68-1.13,2.87-2.81,2.87
			C19.41,35.57,18.25,34.38,18.25,32.71z"/>
		<path class="st1" d="M25.32,12.33h5.93l9.44,12.12V12.33h6.29v22.94h-5.54l-9.83-12.58v12.58h-6.29V12.33z"/>
	</g>
</g>
</svg>
